<?xml version="1.0" encoding="utf-8"?>
<!-- Generator: Adobe Illustrator 22.1.0, SVG Export Plug-In . SVG Version: 6.00 Build 0)  -->
<svg version="1.1" id="Layer_1" xmlns="http://www.w3.org/2000/svg" xmlns:xlink="http://www.w3.org/1999/xlink" x="0px" y="0px"
	 viewBox="0 0 382.7 338.6" style="enable-background:new 0 0 382.7 338.6;" xml:space="preserve">
<style type="text/css">
	.st0{fill:#FFF200;}
</style>
<g>
	<path d="M204,6.7c0,0-2.7-6.7-11.4-6.7c-8.7,0-12.8,6.7-12.8,6.7L2.1,316.7c0,0-4.5,7.7-0.4,14.8c0,0,4.3,7,11.3,7
		c7,0,354.5,0,354.5,0s9.5,0.3,13.3-7.2c3.2-6.2,1.6-11,0.1-13.9L204,6.7z"/>
	<polygon class="st0" points="192.4,33.5 31.3,314.2 350.7,314.2 	"/>
	<path d="M165.1,116.8l11.4,108.1c0,0,2.7,13.4,13.9,13.4c13,0,15-13.2,15-13.2l11.9-108.5c0,0-1.5-26.2-26-26.2
		C165.1,90.4,165.1,116.8,165.1,116.8z"/>
	<circle cx="191.6" cy="278.3" r="25.8"/>
</g>
</svg>
